<!DOCTYPE svg PUBLIC "-//W3C//DTD SVG 1.1//EN" "http://www.w3.org/Graphics/SVG/1.1/DTD/svg11.dtd">
<!-- Uploaded to: SVG Repo, www.svgrepo.com, Transformed by: SVG Repo Mixer Tools -->
<svg fill="#808080" width="800px" height="800px" viewBox="-13.5 0 32 32" version="1.1" xmlns="http://www.w3.org/2000/svg" stroke="#808080" stroke-width="0.00032">
<g id="SVGRepo_bgCarrier" stroke-width="0"/>
<g id="SVGRepo_tracerCarrier" stroke-linecap="round" stroke-linejoin="round"/>
<g id="SVGRepo_iconCarrier"> <title>dots-v</title> <path d="M2.48 11.84c-1.36 0-2.48-1.12-2.48-2.48s1.12-2.48 2.48-2.48 2.48 1.12 2.48 2.48-1.12 2.48-2.48 2.48zM2.48 8.56c-0.44 0-0.8 0.36-0.8 0.8s0.36 0.8 0.8 0.8 0.8-0.36 0.8-0.8c0-0.44-0.36-0.8-0.8-0.8zM2.48 18.48c-1.36 0-2.48-1.12-2.48-2.48s1.12-2.48 2.48-2.48 2.48 1.12 2.48 2.48-1.12 2.48-2.48 2.48zM2.48 15.2c-0.44 0-0.8 0.36-0.8 0.8s0.36 0.8 0.8 0.8 0.8-0.36 0.8-0.8-0.36-0.8-0.8-0.8zM2.48 25.12c-1.36 0-2.48-1.12-2.48-2.48s1.12-2.48 2.48-2.48 2.48 1.12 2.48 2.48c0 1.36-1.12 2.48-2.48 2.48zM2.48 21.84c-0.44 0-0.8 0.36-0.8 0.8s0.36 0.8 0.8 0.8 0.8-0.36 0.8-0.8-0.36-0.8-0.8-0.8z"/> </g>
</svg>